<?xml version="1.0" encoding="UTF-8"?>
<svg width="120px" height="110px" viewBox="0 0 120 110" version="1.1" xmlns="http://www.w3.org/2000/svg" xmlns:xlink="http://www.w3.org/1999/xlink">
    <!-- Generator: Sketch 44 (41411) - http://www.bohemiancoding.com/sketch -->
    <title>3TP logo icon</title>
    <desc>Created with Sketch.</desc>
    <defs></defs>
    <g id="Symbols" stroke="none" stroke-width="1" fill="none" fill-rule="evenodd">
        <g id="3TP-logo-icon">
            <g>
                <rect id="Rectangle" fill="#FFFFFF" x="0" y="0" width="120" height="110" rx="10"></rect>
                <g id="3TP-logo" transform="translate(9.000000, 14.000000)">
                    <g>
                        <path d="M2.46814121,0.00890127707 L2.46814121,30.8992733 C3.10454881,29.8270569 3.779162,28.8285796 4.48947973,27.9065682 C5.95640605,26.0026738 7.59402854,24.4018575 9.37882447,23.1251934 L9.37612938,23.122155 C11.1993896,21.8167821 13.141126,20.8435857 15.1924555,20.1917367 C17.2745952,19.5301494 19.4474193,19.205413 21.7022819,19.205413 C23.9895719,19.205413 26.1135178,19.5533852 28.0474492,20.2352284 C29.9979177,20.9230899 31.7398294,21.9501591 33.2469017,23.3020231 L33.2502652,23.3050615 L33.2536287,23.3080999 C34.7671261,24.6608987 35.9226079,26.162325 36.7047875,27.7907398 C37.4930688,29.4319119 37.8949821,31.1775381 37.8949821,33.0056873 C37.8949821,34.1756382 37.7036738,35.3526007 37.3499919,36.5067169 C36.9875778,37.6891329 36.4584779,38.8293816 35.7943217,39.8948785 L35.7875947,39.9009553 C35.6272908,40.1562959 35.5186248,40.332814 35.4062935,40.5160515 C34.5673445,41.8807313 33.516195,43.5906175 32.0624639,45.0327564 C35.0009736,46.2380381 37.1590071,47.7919737 38.703552,49.7535195 C40.6880864,52.273971 41.5901004,55.3872373 41.7773768,59.2325579 C41.9515011,62.8050089 41.5688415,66.4609373 40.2466954,69.7884872 C39.0919467,72.6952801 37.233564,75.3356502 34.4276958,77.4386947 C32.173825,79.1280524 30.0650362,80.2615622 27.8803968,81.0232407 L47.3656121,81.0481321 C47.3733739,80.3363725 47.9092439,79.7384548 48.6364652,79.5599111 C48.9421746,79.4571516 49.1180022,79.3981954 49.2115111,79.3661756 L49.2111445,79.3648511 C49.1142722,79.3965399 49.0026309,79.4339158 49.210778,79.36452 C52.4574335,78.2828574 54.2820952,77.6748312 55.4996071,75.2352668 L55.4965455,75.2342151 C55.5708006,75.0819456 55.6153666,74.6366284 55.6484192,73.8948941 C55.6834985,73.1042341 55.6834985,71.8029319 55.6834985,70.1253771 L55.6834985,31.2951389 L55.6834985,27.8742757 C55.2502359,26.124579 54.0468462,24.8889719 52.7182965,24.02356 C51.2514134,23.067211 49.6076892,22.533294 48.5848273,22.2486213 C47.6771213,21.9966502 47.1672104,21.1272066 47.4462707,20.3069419 C47.6736931,19.6386351 48.3547098,19.2094447 49.0903183,19.2094447 L49.0903183,19.205413 L75.3857223,19.205413 C79.8225723,19.205413 83.7120605,19.6258193 86.995132,20.4373 C90.4108451,21.2815211 93.1671668,22.5534914 95.2016142,24.2209961 L95.2019808,24.220665 C96.9115513,25.6118916 98.2893672,27.178643 99.3135227,28.9141606 L99.0256441,0.00890127707 L2.46814121,0.00890127707 Z" id="Stroke-2" stroke="#FFFFFF" stroke-width="0.072" fill="#0133D0"></path>
                        <path d="M12.0465476,50.7307855 L12.0465476,49.3000638 C15.4929762,48.3325826 17.8680952,47.4490029 19.1720238,46.6778464 C20.444881,45.9064522 21.5784524,44.5741304 22.5253571,42.9335362 C23.4411905,41.3206319 24,39.6238261 24,37.9270203 C24,35.5429594 23.0685714,33.5375246 21.2830952,31.8548609 C19.4514286,30.143913 17.2005952,29.2465478 14.5458333,29.2465478 C10.4321429,29.2465478 6.78392857,30.5647275 3.88107143,34.7297333 L2.23535714,34.9961739 C4.37785714,30.2840261 7.17202381,26.6801855 10.4477381,24.338313 C13.8161905,21.9263246 17.5886905,20.7620435 21.702619,20.7620435 C25.8627381,20.7620435 29.3713095,22.0102261 32.0413095,24.4083101 C34.7582143,26.8345594 36.1707143,29.7515014 36.1707143,33.0046435 C36.1707143,35.1222638 35.4722619,37.2397652 34.2925,39.1330145 C33.112381,41.0123594 31.4514286,44.0553913 28.7503571,45.5419681 C36.8227381,47.926029 39.7140476,52.2032203 40.0596429,59.2990725 C40.3660714,65.5816986 38.8822619,72.078 33.3296429,76.2396783 C27.2564286,80.7915101 22.4010714,80.9935391 13.7540476,80.9935391 C8.69321429,80.9935391 4.90559524,80.1662899 2.54583333,78.5674087 C0.915833333,77.459458 0,75.9449536 0,74.2059594 C0,72.9298493 0.496785714,71.7660435 1.45916667,70.8685594 C2.46821429,69.9148638 3.6327381,69.4662406 4.89011905,69.4662406 C5.8525,69.4662406 6.815,69.6342812 7.6997619,70.0129072 C8.15,70.2093507 9.8422619,71.5275304 12.6985714,73.7572174 C15.6016667,76.0011652 18.3958333,77.1511855 20.8795238,77.1511855 C23.1307143,77.1511855 24.9779762,76.2955333 26.5302381,74.6829855 C28.0984524,73.0420348 28.9366667,70.9107478 28.9366667,68.3161014 C28.9366667,64.4596058 27.4620238,60.8274812 24.6364286,57.6022667 C21.7802381,54.3346261 17.5886905,52.0206812 12.0465476,50.7307855" id="Fill-4" fill="#B81208"></path>
                        <path d="M71.3635714,53.507258 L71.3635714,70.1250928 C71.3635714,73.3785913 71.6507143,75.4962116 71.9703571,76.1976087 C72.9759524,78.4272957 76.9194048,80.0961739 79.8094048,81.0636551 L49.0909524,81.0636551 C53.2261905,79.6753594 55.4615476,79.1004087 57.0739286,75.8610522 C57.4092857,75.1737971 57.4092857,73.3785913 57.4092857,70.1250928 L57.4092857,31.2940522 L57.4092857,27.7177826 C56.4033333,23.1461043 51.3580952,21.3933246 49.0909524,20.7620435 L75.3867857,20.7620435 C84.0242857,20.7620435 90.394881,22.3750667 94.0511905,25.3759101 C97.7392857,28.3769913 99.7191667,32.233487 99.7191667,36.8611391 C99.7191667,40.7597043 98.4417857,44.1253884 96.094881,46.8460058 C93.7636905,49.5244348 90.2352381,51.501942 86.0041667,52.4555188 C83.1783333,53.0865623 78.2288095,53.507258 71.3635714,53.507258 Z M71.3635714,24.1978435 L71.3635714,50.0857188 C72.4011905,50.1557159 73.1038095,50.2116899 73.6147619,50.2116899 C77.2390476,50.2116899 80.0969048,49.1178812 82.0127381,47.0144029 C83.9288095,44.938971 84.9344048,41.5312174 84.9344048,37.0996522 C84.9344048,32.668087 83.912619,29.3165449 82.0127381,27.3391565 C80.0807143,25.3057942 77.0952381,24.1978435 73.2314286,24.1978435 L71.3635714,24.1978435 Z" id="Fill-5" fill="#B81208"></path>
                    </g>
                </g>
            </g>
        </g>
    </g>
</svg>