<?xml version="1.0" encoding="UTF-8"?>
<svg width="120px" height="110px" viewBox="0 0 120 110" version="1.1" xmlns="http://www.w3.org/2000/svg" xmlns:xlink="http://www.w3.org/1999/xlink">
    <!-- Generator: Sketch 44 (41411) - http://www.bohemiancoding.com/sketch -->
    <title>3TP-avatar</title>
    <desc>Created with Sketch.</desc>
    <defs>
        <rect id="path-1" x="0" y="0" width="120" height="110" rx="10"></rect>
    </defs>
    <g id="Symbols" stroke="none" stroke-width="1" fill="none" fill-rule="evenodd">
        <g id="Avatar-vector">
            <g id="Group">
                <g id="3TP-avatar">
                    <mask id="mask-2" fill="white">
                        <use xlink:href="#path-1"></use>
                    </mask>
                    <g id="Mask"></g>
                    <g id="Group-2" mask="url(#mask-2)">
                        <rect id="Rectangle" fill="#FFFFFF" x="0" y="0" width="120" height="110" rx="10"></rect>
                        <path d="M13,99.1858672 L13,94.2722063 C13,88.7472981 17.3746071,83.2874605 22.7479238,82.0824834 L47.8,76.4645045 L47.8,70.1506353 C40.2892728,65.0607146 35.2,55.2223416 35.2,43.9203779 C35.2,27.3958095 46.0794806,14 59.5,14 C72.9205194,14 83.8,27.3958095 83.8,43.9203779 C83.8,54.918727 78.9804897,64.5310645 71.8000077,69.7302134 L71.8,76.5990557 L96.2520762,82.0824834 C101.635706,83.2897732 106,88.7505646 106,94.2722063 L106,99.1858672 L106,109.745209 L98.2518414,109.745209 C97.528837,109.911914 96.7761187,110 96.0032295,110 L22.9967705,110 C22.2227527,110 21.4692805,109.911908 20.7458061,109.745209 L13,109.745209 L13,99.1858672 Z" id="Combined-Shape" fill="#D8D8D8"></path>
                    </g>
                </g>
            </g>
        </g>
    </g>
</svg>